<mxfile host="app.diagrams.net" modified="2020-12-22T17:38:30.369Z" agent="5.0 (Windows NT 10.0; Win64; x64) AppleWebKit/537.36 (KHTML, like Gecko) Chrome/87.0.4280.88 Safari/537.36" etag="GQ4wZWzz6NjKajskzrt4" version="14.1.1" type="github">
  <diagram id="LNv745AhnI8nAWwQO4JP" name="Page-1">
    <mxGraphModel dx="1875" dy="866" grid="1" gridSize="10" guides="1" tooltips="1" connect="1" arrows="1" fold="1" page="1" pageScale="1" pageWidth="827" pageHeight="1169" math="0" shadow="0">
      <root>
        <mxCell id="0" />
        <mxCell id="1" parent="0" />
        <mxCell id="pRR5aA32JOlJ1fDEQfeB-1" value="Products" style="swimlane;childLayout=stackLayout;horizontal=1;startSize=30;horizontalStack=0;rounded=1;fontSize=14;fontStyle=0;strokeWidth=2;resizeParent=0;resizeLast=1;shadow=0;dashed=0;align=center;" vertex="1" parent="1">
          <mxGeometry x="520" y="160" width="160" height="120" as="geometry" />
        </mxCell>
        <mxCell id="pRR5aA32JOlJ1fDEQfeB-2" value="id&#xa;selfcost&#xa;sellprice&#xa;typeId" style="align=left;strokeColor=none;fillColor=none;spacingLeft=4;fontSize=12;verticalAlign=top;resizable=0;rotatable=0;part=1;" vertex="1" parent="pRR5aA32JOlJ1fDEQfeB-1">
          <mxGeometry y="30" width="160" height="90" as="geometry" />
        </mxCell>
        <mxCell id="pRR5aA32JOlJ1fDEQfeB-3" value="Factories" style="swimlane;childLayout=stackLayout;horizontal=1;startSize=30;horizontalStack=0;rounded=1;fontSize=14;fontStyle=0;strokeWidth=2;resizeParent=0;resizeLast=1;shadow=0;dashed=0;align=center;" vertex="1" parent="1">
          <mxGeometry x="40" y="160" width="160" height="120" as="geometry" />
        </mxCell>
        <mxCell id="pRR5aA32JOlJ1fDEQfeB-4" value="id&#xa;name" style="align=left;strokeColor=none;fillColor=none;spacingLeft=4;fontSize=12;verticalAlign=top;resizable=0;rotatable=0;part=1;" vertex="1" parent="pRR5aA32JOlJ1fDEQfeB-3">
          <mxGeometry y="30" width="160" height="90" as="geometry" />
        </mxCell>
        <mxCell id="pRR5aA32JOlJ1fDEQfeB-5" value="ProductTypes" style="swimlane;childLayout=stackLayout;horizontal=1;startSize=30;horizontalStack=0;rounded=1;fontSize=14;fontStyle=0;strokeWidth=2;resizeParent=0;resizeLast=1;shadow=0;dashed=0;align=center;" vertex="1" parent="1">
          <mxGeometry x="520" y="360" width="160" height="120" as="geometry" />
        </mxCell>
        <mxCell id="pRR5aA32JOlJ1fDEQfeB-6" value="id&#xa;name&#xa;description" style="align=left;strokeColor=none;fillColor=none;spacingLeft=4;fontSize=12;verticalAlign=top;resizable=0;rotatable=0;part=1;" vertex="1" parent="pRR5aA32JOlJ1fDEQfeB-5">
          <mxGeometry y="30" width="160" height="90" as="geometry" />
        </mxCell>
        <mxCell id="pRR5aA32JOlJ1fDEQfeB-7" value="Production" style="swimlane;childLayout=stackLayout;horizontal=1;startSize=30;horizontalStack=0;rounded=1;fontSize=14;fontStyle=0;strokeWidth=2;resizeParent=0;resizeLast=1;shadow=0;dashed=0;align=center;" vertex="1" parent="1">
          <mxGeometry x="280" y="440" width="160" height="120" as="geometry" />
        </mxCell>
        <mxCell id="pRR5aA32JOlJ1fDEQfeB-8" value="id&#xa;productId&#xa;factoryId" style="align=left;strokeColor=none;fillColor=none;spacingLeft=4;fontSize=12;verticalAlign=top;resizable=0;rotatable=0;part=1;" vertex="1" parent="pRR5aA32JOlJ1fDEQfeB-7">
          <mxGeometry y="30" width="160" height="90" as="geometry" />
        </mxCell>
        <mxCell id="pRR5aA32JOlJ1fDEQfeB-9" value="" style="edgeStyle=entityRelationEdgeStyle;fontSize=12;html=1;endArrow=ERmany;startArrow=ERmany;entryX=0;entryY=0;entryDx=0;entryDy=0;exitX=1;exitY=0;exitDx=0;exitDy=0;" edge="1" parent="1" source="pRR5aA32JOlJ1fDEQfeB-4" target="pRR5aA32JOlJ1fDEQfeB-2">
          <mxGeometry width="100" height="100" relative="1" as="geometry">
            <mxPoint x="280" y="200" as="sourcePoint" />
            <mxPoint x="380" y="100" as="targetPoint" />
          </mxGeometry>
        </mxCell>
        <mxCell id="pRR5aA32JOlJ1fDEQfeB-10" value="" style="edgeStyle=entityRelationEdgeStyle;fontSize=12;html=1;endArrow=ERmandOne;startArrow=ERmandOne;exitX=1;exitY=0.111;exitDx=0;exitDy=0;exitPerimeter=0;entryX=1;entryY=0.5;entryDx=0;entryDy=0;" edge="1" parent="1" source="pRR5aA32JOlJ1fDEQfeB-6" target="pRR5aA32JOlJ1fDEQfeB-2">
          <mxGeometry width="100" height="100" relative="1" as="geometry">
            <mxPoint x="700" y="470" as="sourcePoint" />
            <mxPoint x="760" y="235" as="targetPoint" />
          </mxGeometry>
        </mxCell>
        <mxCell id="pRR5aA32JOlJ1fDEQfeB-11" value="" style="edgeStyle=entityRelationEdgeStyle;fontSize=12;html=1;endArrow=ERmandOne;startArrow=ERmandOne;entryX=-0.008;entryY=0.098;entryDx=0;entryDy=0;entryPerimeter=0;" edge="1" parent="1" source="pRR5aA32JOlJ1fDEQfeB-4" target="pRR5aA32JOlJ1fDEQfeB-8">
          <mxGeometry width="100" height="100" relative="1" as="geometry">
            <mxPoint x="220" y="310" as="sourcePoint" />
            <mxPoint x="420" y="430" as="targetPoint" />
          </mxGeometry>
        </mxCell>
        <mxCell id="pRR5aA32JOlJ1fDEQfeB-12" value="" style="edgeStyle=entityRelationEdgeStyle;fontSize=12;html=1;endArrow=ERmandOne;startArrow=ERmandOne;exitX=1.013;exitY=0.11;exitDx=0;exitDy=0;exitPerimeter=0;entryX=0;entryY=0.5;entryDx=0;entryDy=0;" edge="1" parent="1" source="pRR5aA32JOlJ1fDEQfeB-8" target="pRR5aA32JOlJ1fDEQfeB-2">
          <mxGeometry width="100" height="100" relative="1" as="geometry">
            <mxPoint x="350" y="550" as="sourcePoint" />
            <mxPoint x="450" y="450" as="targetPoint" />
          </mxGeometry>
        </mxCell>
      </root>
    </mxGraphModel>
  </diagram>
</mxfile>
